<?xml version="1.0" encoding="UTF-8"?>
<svg width="36px" height="36px" viewBox="0 0 36 36" version="1.1" xmlns="http://www.w3.org/2000/svg" xmlns:xlink="http://www.w3.org/1999/xlink">
    <title>icon</title>
    <g id="icon" stroke="none" stroke-width="1" fill="none" fill-rule="evenodd">
        <g id="cart" transform="translate(0.000000, 3.000000)" fill="#FFFFFF" fill-rule="nonzero">
            <path d="M35.4368959,4.88750227 C34.9539931,4.28877955 34.2362482,3.94545455 33.4678787,3.94545455 L6.02833986,3.94545455 L5.78330254,2.18578182 C5.60977253,0.939722727 4.53203021,0 3.27632822,0 L1.12499198,0 C0.503715161,0 0,0.504736364 0,1.12727273 C0,1.74980909 0.503715161,2.25454545 1.12499198,2.25454545 L3.27632822,2.25454545 C3.41582722,2.25454545 3.53563887,2.35895909 3.55483405,2.49740227 L6.59153897,24.3051273 C6.76506898,25.5512568 7.8428113,26.4909091 9.09851329,26.4909091 L10.3183562,26.4909091 C10.1934821,26.8437455 10.1248575,27.2230023 10.1248575,27.6181818 C10.1248575,29.4829023 11.6388858,31 13.4998335,31 C15.3607812,31 16.8748094,29.4829023 16.8748094,27.6181818 C16.8748094,27.2230023 16.8061849,26.8437455 16.6813108,26.4909091 L22.693268,26.4909091 C22.5683939,26.8437455 22.4997694,27.2230023 22.4997694,27.6181818 C22.4997694,29.4829023 24.0137976,31 25.8747453,31 C27.735693,31 29.2497213,29.4829023 29.2497213,27.6181818 C29.2497213,27.2230023 29.1810968,26.8437455 29.0562226,26.4909091 L31.4997755,26.4909091 C32.1210524,26.4909091 32.6247675,25.9861727 32.6247675,25.3636364 C32.6247675,24.7411 32.1210524,24.2363636 31.4997755,24.2363636 L9.09858361,24.2363636 C8.9590846,24.2363636 8.83927295,24.13195 8.82007778,23.9935068 L8.53995477,21.9818182 L30.6954063,21.9818182 C31.880726,21.9818182 32.9216951,21.1388295 33.1707402,19.9768227 L35.943072,7.01339773 C36.1041568,6.26087273 35.9196581,5.48601364 35.4368959,4.88750227 L35.4368959,4.88750227 Z M14.6248958,27.6181818 C14.6248958,28.2397318 14.1201963,28.7454545 13.4999038,28.7454545 C12.8796114,28.7454545 12.3749118,28.2397318 12.3749118,27.6181818 C12.3749118,26.9966318 12.8796114,26.4909091 13.4999038,26.4909091 C14.1201963,26.4909091 14.6248958,26.9965614 14.6248958,27.6181818 Z M26.9998076,27.6181818 C26.9998076,28.2397318 26.4951081,28.7454545 25.8748156,28.7454545 C25.2545232,28.7454545 24.7498236,28.2397318 24.7498236,27.6181818 C24.7498236,26.9966318 25.2545232,26.4909091 25.8748156,26.4909091 C26.4951081,26.4909091 26.9998076,26.9965614 26.9998076,27.6181818 Z M33.7430799,6.54078864 L30.9708184,19.5039318 C30.9431155,19.6332864 30.8272413,19.7272023 30.6954063,19.7272023 L8.22594139,19.7272023 L6.34228293,6.19992955 L33.4678084,6.19992955 C33.5791123,6.19992955 33.6484399,6.25685682 33.6869709,6.304625 C33.7254316,6.35232273 33.7663531,6.43200682 33.7430799,6.54078864 L33.7430799,6.54078864 Z" id="Shape"></path>
        </g>
    </g>
</svg>