<?xml version="1.0" encoding="UTF-8"?>
<svg width="10px" height="11px" viewBox="0 0 10 11" version="1.1" xmlns="http://www.w3.org/2000/svg" xmlns:xlink="http://www.w3.org/1999/xlink">
    <!-- Generator: Sketch 48.2 (47327) - http://www.bohemiancoding.com/sketch -->
    <title>calendar</title>
    <desc>Created with Sketch.</desc>
    <defs></defs>
    <g id="Page-1" stroke="none" stroke-width="1" fill="none" fill-rule="evenodd">
        <g id="calendar" fill="#000000" fill-rule="nonzero">
            <path d="M9.82142857,0.714285714 L8.57142857,0.714285714 L8.57142857,0.178571429 C8.57142857,0.0798214286 8.49160714,0 8.39285714,0 L7.14285714,0 C7.04410714,0 6.96428571,0.0798214286 6.96428571,0.178571429 L6.96428571,0.714285714 L3.03571429,0.714285714 L3.03571429,0.178571429 C3.03571429,0.0798214286 2.95589286,0 2.85714286,0 L1.60714286,0 C1.50839286,0 1.42857143,0.0798214286 1.42857143,0.178571429 L1.42857143,0.714285714 L0.178571429,0.714285714 C0.0798214286,0.714285714 0,0.794107143 0,0.892857143 L0,2.85714286 L0,10.5357143 C0,10.6344643 0.0798214286,10.7142857 0.178571429,10.7142857 L9.82142857,10.7142857 C9.92017857,10.7142857 10,10.6344643 10,10.5357143 L10,2.85714286 L10,0.892857143 C10,0.794107143 9.92017857,0.714285714 9.82142857,0.714285714 Z M7.32142857,0.357142857 L8.21428571,0.357142857 L8.21428571,0.892857143 L8.21428571,1.42857143 L7.32142857,1.42857143 L7.32142857,0.892857143 L7.32142857,0.357142857 Z M1.78571429,0.357142857 L2.67857143,0.357142857 L2.67857143,0.892857143 L2.67857143,1.42857143 L1.78571429,1.42857143 L1.78571429,0.892857143 L1.78571429,0.357142857 Z M0.357142857,1.07142857 L1.42857143,1.07142857 L1.42857143,1.60714286 C1.42857143,1.70589286 1.50839286,1.78571429 1.60714286,1.78571429 L2.85714286,1.78571429 C2.95589286,1.78571429 3.03571429,1.70589286 3.03571429,1.60714286 L3.03571429,1.07142857 L6.96428571,1.07142857 L6.96428571,1.60714286 C6.96428571,1.70589286 7.04410714,1.78571429 7.14285714,1.78571429 L8.39285714,1.78571429 C8.49160714,1.78571429 8.57142857,1.70589286 8.57142857,1.60714286 L8.57142857,1.07142857 L9.64285714,1.07142857 L9.64285714,2.67857143 L0.357142857,2.67857143 L0.357142857,1.07142857 Z M0.357142857,10.3571429 L0.357142857,3.03571429 L9.64285714,3.03571429 L9.64285714,10.3571429 L0.357142857,10.3571429 Z" id="Shape"></path>
            <path d="M6.42857143,4.10714286 L5.17857143,4.10714286 L4.82142857,4.10714286 L3.57142857,4.10714286 L3.21428571,4.10714286 L1.60714286,4.10714286 L1.60714286,5.71428571 L1.60714286,6.07142857 L1.60714286,7.32142857 L1.60714286,7.67857143 L1.60714286,9.28571429 L3.21428571,9.28571429 L3.57142857,9.28571429 L4.82142857,9.28571429 L5.17857143,9.28571429 L6.42857143,9.28571429 L6.78571429,9.28571429 L8.39285714,9.28571429 L8.39285714,7.67857143 L8.39285714,7.32142857 L8.39285714,6.07142857 L8.39285714,5.71428571 L8.39285714,4.10714286 L6.78571429,4.10714286 L6.42857143,4.10714286 Z M5.17857143,4.46428571 L6.42857143,4.46428571 L6.42857143,5.71428571 L5.17857143,5.71428571 L5.17857143,4.46428571 Z M6.42857143,7.32142857 L5.17857143,7.32142857 L5.17857143,6.07142857 L6.42857143,6.07142857 L6.42857143,7.32142857 Z M3.57142857,6.07142857 L4.82142857,6.07142857 L4.82142857,7.32142857 L3.57142857,7.32142857 L3.57142857,6.07142857 Z M3.57142857,4.46428571 L4.82142857,4.46428571 L4.82142857,5.71428571 L3.57142857,5.71428571 L3.57142857,4.46428571 Z M1.96428571,4.46428571 L3.21428571,4.46428571 L3.21428571,5.71428571 L1.96428571,5.71428571 L1.96428571,4.46428571 Z M1.96428571,6.07142857 L3.21428571,6.07142857 L3.21428571,7.32142857 L1.96428571,7.32142857 L1.96428571,6.07142857 Z M3.21428571,8.92857143 L1.96428571,8.92857143 L1.96428571,7.67857143 L3.21428571,7.67857143 L3.21428571,8.92857143 Z M4.82142857,8.92857143 L3.57142857,8.92857143 L3.57142857,7.67857143 L4.82142857,7.67857143 L4.82142857,8.92857143 Z M6.42857143,8.92857143 L5.17857143,8.92857143 L5.17857143,7.67857143 L6.42857143,7.67857143 L6.42857143,8.92857143 Z M8.03571429,8.92857143 L6.78571429,8.92857143 L6.78571429,7.67857143 L8.03571429,7.67857143 L8.03571429,8.92857143 Z M8.03571429,7.32142857 L6.78571429,7.32142857 L6.78571429,6.07142857 L8.03571429,6.07142857 L8.03571429,7.32142857 Z M8.03571429,4.46428571 L8.03571429,5.71428571 L6.78571429,5.71428571 L6.78571429,4.46428571 L8.03571429,4.46428571 Z" id="Shape"></path>
        </g>
    </g>
</svg>