<?xml version="1.0" encoding="UTF-8"?>
<svg width="36px" height="36px" viewBox="0 0 36 36" version="1.1" xmlns="http://www.w3.org/2000/svg" xmlns:xlink="http://www.w3.org/1999/xlink">
    <title>soc</title>
    <g id="Page-1" stroke="none" stroke-width="1" fill="none" fill-rule="evenodd">
        <g id="icon" fill="currentColor" fill-rule="nonzero">
            <g id="Path">
                <path d="M34.0118554,0 L1.9869591,0 C0.890337878,0 0,0.888559573 0,1.9869591 L0,34.0118554 C0,35.1102549 0.890337878,36 1.9869591,36 L19.2282158,36 L19.2282158,22.0586841 L14.537048,22.0586841 L14.537048,16.6247777 L19.2282158,16.6247777 L19.2282158,12.6176645 C19.2282158,7.96858328 22.0669828,5.43568465 26.2151749,5.43568465 C28.2039123,5.43568465 29.9093065,5.58446947 30.406639,5.64908121 L30.406639,10.5085951 L27.529342,10.5097807 C25.2738589,10.5097807 24.838767,11.5820984 24.838767,13.1547125 L24.838767,16.6229994 L30.219917,16.6229994 L29.5163011,22.056313 L24.8381743,22.056313 L24.8381743,35.9982217 L34.0112626,35.9982217 C35.1090694,35.9982217 36,35.107291 36,34.0118554 L36,1.98577356 C35.9994072,0.888559573 35.1096621,0 34.0118554,0 Z"></path>
            </g>
        </g>
    </g>
</svg>