<?xml version="1.0" encoding="UTF-8"?>
<svg width="36px" height="36px" viewBox="0 0 36 36" version="1.1" xmlns="http://www.w3.org/2000/svg" xmlns:xlink="http://www.w3.org/1999/xlink">
    <title>soc copy</title>
    <g id="Page-1" stroke="none" stroke-width="1" fill="none" fill-rule="evenodd">
        <g id="icon" fill="currentColor" fill-rule="nonzero">
            <g id="logo-2">
                <path d="M25.9212706,0 L9.87967059,0 C4.43202353,0 0,4.43223529 0,9.87988235 L0,25.9214824 C0,31.3693412 4.43202353,35.8013647 9.87967059,35.8013647 L25.9212706,35.8013647 C31.3693412,35.8013647 35.8013647,31.3691294 35.8013647,25.9214824 L35.8013647,9.87988235 C35.8013647,4.43223529 31.3693412,0 25.9212706,0 Z M32.6251059,25.9214824 C32.6251059,29.6178353 29.6178353,32.6248941 25.9214824,32.6248941 L9.87967059,32.6248941 C6.18352941,32.6248941 3.17647059,29.6178353 3.17647059,25.9214824 L3.17647059,9.87988235 C3.17647059,6.18374118 6.18352941,3.17647059 9.87967059,3.17647059 L25.9212706,3.17647059 C29.6176235,3.17647059 32.6251059,6.18374118 32.6251059,9.87988235 L32.6251059,25.9214824 L32.6251059,25.9214824 Z" id="Shape"></path>
                <path d="M17.9006824,8.676 C12.8138824,8.676 8.67557647,12.8143059 8.67557647,17.9011059 C8.67557647,22.9876941 12.8138824,27.1257882 17.9006824,27.1257882 C22.9874824,27.1257882 27.1257882,22.9876941 27.1257882,17.9011059 C27.1257882,12.8143059 22.9874824,8.676 17.9006824,8.676 Z M17.9006824,23.9491059 C14.5656,23.9491059 11.8520471,21.2359765 11.8520471,17.9008941 C11.8520471,14.5656 14.5653882,11.8522588 17.9006824,11.8522588 C21.2359765,11.8522588 23.9493176,14.5656 23.9493176,17.9008941 C23.9493176,21.2359765 21.2357647,23.9491059 17.9006824,23.9491059 Z" id="Shape"></path>
                <path d="M27.5126824,5.98256471 C26.9006824,5.98256471 26.2994824,6.23032941 25.8672706,6.66444706 C25.4329412,7.09644706 25.1832706,7.69785882 25.1832706,8.31197647 C25.1832706,8.92418824 25.4331529,9.52538824 25.8672706,9.95950588 C26.2992706,10.3915059 26.9006824,10.6413882 27.5126824,10.6413882 C28.1268,10.6413882 28.7260941,10.3915059 29.1602118,9.95950588 C29.5943294,9.52538824 29.8420941,8.92397647 29.8420941,8.31197647 C29.8420941,7.69785882 29.5943294,7.09644706 29.1602118,6.66444706 C28.7282118,6.23032941 28.1268,5.98256471 27.5126824,5.98256471 Z" id="Path"></path>
            </g>
        </g>
    </g>
</svg>