<?xml version="1.0" encoding="UTF-8"?>
<svg width="36px" height="36px" viewBox="0 0 36 36" version="1.1" xmlns="http://www.w3.org/2000/svg" xmlns:xlink="http://www.w3.org/1999/xlink">
    <title>icon</title>
    <g id="icon" stroke="none" stroke-width="1" fill="none" fill-rule="evenodd">
        <g id="fast-forward" transform="translate(0.000000, 5.000000)" fill="currentColor" fill-rule="nonzero">
            <path d="M35.6982641,12.2105455 L25.1110406,0.392363636 C24.8851798,0.141818182 24.5699158,0 24.2358301,0 L17.177681,0 C16.7141959,0 16.2930597,0.274181818 16.1024897,0.699636364 C15.9142724,1.12745455 15.991912,1.62618182 16.3024706,1.97127273 L26.1815265,13 L16.3024706,24.0263636 C15.991912,24.3738182 15.9119196,24.8725455 16.1024897,25.298 C16.2930597,25.7258182 16.7141959,26 17.177681,26 L24.2358301,26 C24.5699158,26 24.8851798,25.8558182 25.1110406,25.61 L35.6982641,13.7918182 C36.1005786,13.3427273 36.1005786,12.6572727 35.6982641,12.2105455 Z" id="Path"></path>
            <path d="M19.6982641,12.2105455 L9.11104056,0.392363636 C8.88517979,0.141818182 8.5699158,0 8.23583008,0 L1.17768104,0 C0.71419592,0 0.293059693,0.274181818 0.102489669,0.699636364 C-0.0857276385,1.12745455 -0.008087999,1.62618182 0.302470559,1.97127273 L10.1815265,13 L0.302470559,24.0263636 C-0.008087999,24.3738182 -0.0880803548,24.8725455 0.102489669,25.298 C0.293059693,25.7258182 0.71419592,26 1.17768104,26 L8.23583008,26 C8.5699158,26 8.88517979,25.8558182 9.11104056,25.61 L19.6982641,13.7918182 C20.1005786,13.3427273 20.1005786,12.6572727 19.6982641,12.2105455 Z" id="Path"></path>
        </g>
    </g>
</svg>