<?xml version="1.0" encoding="UTF-8"?>
<svg width="36px" height="36px" viewBox="0 0 36 36" version="1.1" xmlns="http://www.w3.org/2000/svg" xmlns:xlink="http://www.w3.org/1999/xlink">
    <title>iconfinder_time-24_103169</title>
    <g id="Page-1" stroke="none" stroke-width="1" fill="none" fill-rule="evenodd">
        <g id="icon" fill="currentColor" fill-rule="nonzero">
            <g id="iconfinder_time-24_103169">
                <path d="M18,0 C8.060015,0 0,8.0595 0,18 C0,27.9405 8.060015,36 18,36 C27.9414854,36 36,27.9405 36,18 C36,8.0595 27.9414854,0 18,0 Z M24.6196549,25.0635 L24.0945236,25.5885 C23.6579145,26.025 22.9212303,26.046 22.4621155,25.632 L15.6804201,19.6995 C15.2183046,19.287 14.8687172,18.4425 14.8987247,17.8245 L15.5273818,7.1235 C15.5603901,6.504 16.0930233,6 16.7126782,6 L17.4523631,6 C18.072018,6 18.6031508,6.504 18.6331583,7.122 L19.1477869,16.023 C19.1792948,16.6425 19.5408852,17.523 19.9504876,17.9865 L24.6676669,23.4285 C25.0772693,23.892 25.0577644,24.627 24.6196549,25.0635 Z" id="Shape"></path>
            </g>
        </g>
    </g>
</svg>