<?xml version="1.0" encoding="UTF-8"?>
<svg width="99px" height="66px" viewBox="0 0 99 66" version="1.1" xmlns="http://www.w3.org/2000/svg" xmlns:xlink="http://www.w3.org/1999/xlink">
    <title>iconfinder_154_truck__delivery__gooods__vehicle_4308502</title>
    <g id="Page-1" stroke="none" stroke-width="1" fill="none" fill-rule="evenodd">
        <g id="shop-copy" transform="translate(-117.000000, -747.000000)" fill="#9B9B9B" fill-rule="nonzero">
            <g id="iconfinder_154_truck__delivery__gooods__vehicle_4308502" transform="translate(166.500000, 780.000000) scale(-1, 1) translate(-166.500000, -780.000000) translate(117.000000, 747.000000)">
                <polygon id="XMLID_13383_" points="56 17.8925224 56 9.10747757 56 7 49 13.5001178 56 20"></polygon>
                <path d="M66.2721994,45.9959616 C66.2962111,45.9607376 66.3227145,45.9275329 66.3469526,45.8925333 C66.4384687,45.7615092 66.5311174,45.6313826 66.6285231,45.5055187 C66.6731485,45.4480835 66.7209452,45.3937892 66.7669298,45.3372514 C66.8477991,45.2378616 66.9286685,45.1377987 67.0133888,45.0419985 C67.0670752,44.981198 67.1239329,44.923314 67.179205,44.8638596 C67.2603009,44.776585 67.3413968,44.689086 67.4256641,44.6051768 C67.4859197,44.5452736 67.548214,44.4882871 67.6098288,44.4304032 C67.6931899,44.3514298 67.7767776,44.2726807 67.8630836,44.1968483 C67.9285493,44.1396374 67.9958272,44.0848945 68.0624255,44.0292541 C68.1491845,43.9574601 68.2359435,43.8858904 68.3247413,43.8174617 C68.3945109,43.7636162 68.4654132,43.7117899 68.5367686,43.6599636 C68.6264724,43.5946759 68.7168558,43.5300613 68.8088249,43.4676903 C68.882219,43.4178831 68.9567457,43.3698709 69.0317254,43.3225317 C69.1246006,43.2630773 69.2183819,43.2051934 69.3135223,43.1493286 C69.3903143,43.1040087 69.4677858,43.0598105 69.5457103,43.0167341 C69.6419834,42.9635616 69.7391626,42.9119597 69.8374744,42.8621526 C69.9169846,42.8217684 69.9967214,42.7820573 70.0775907,42.7439168 C70.1772617,42.6965776 70.2782918,42.6517063 70.3797749,42.6077325 C70.4613239,42.5725085 70.5430993,42.537509 70.6257809,42.5045286 C70.7288497,42.4630227 70.8335042,42.4248821 70.9381587,42.3871902 C71.0215199,42.3571265 71.104428,42.3268384 71.1886952,42.2990182 C71.2958415,42.2640186 71.4043469,42.2319357 71.5128523,42.2007501 C71.59644,42.1765196 71.6800277,42.150943 71.7645214,42.1291805 C71.8764247,42.1000141 71.9894606,42.0753349 72.1027231,42.0497583 C72.1858577,42.0313611 72.2680862,42.0113934 72.3521269,41.9950154 C72.4710525,41.9719067 72.5917903,41.9537338 72.7118484,41.9351123 C72.7911321,41.9227727 72.8692832,41.9084138 72.94902,41.8980935 C73.0831227,41.8805937 73.2183581,41.8691515 73.3535934,41.8577093 C73.4206448,41.8518761 73.4870165,41.8433505 73.554521,41.8388634 C73.7574872,41.8256264 73.9615862,41.818447 74.1663646,41.818447 C74.3711431,41.818447 74.5754685,41.8256264 74.7782083,41.8388634 C74.8457127,41.8433505 74.9120845,41.8518761 74.9791359,41.8577093 C75.1143712,41.8691515 75.24938,41.8805937 75.3837093,41.8980935 C75.463446,41.9084138 75.5415971,41.9227727 75.6208808,41.9351123 C75.740939,41.9537338 75.8616768,41.9719067 75.9806023,41.9950154 C76.0644165,42.0113934 76.1468716,42.0313611 76.2302327,42.0497583 C76.3432686,42.0751106 76.4563045,42.0997898 76.5679813,42.1291805 C76.6527016,42.1511674 76.7362893,42.1765196 76.82033,42.2009745 C76.9288354,42.2323844 77.0371143,42.2640186 77.1440341,42.2992426 C77.2280748,42.3270627 77.3112094,42.3573508 77.3945706,42.3874146 C77.499225,42.4251064 77.603653,42.463247 77.7067218,42.5045286 C77.7894034,42.5377333 77.8714054,42.5727329 77.9531809,42.6081812 C78.0544375,42.6519307 78.1552411,42.6970263 78.2551385,42.7441411 C78.3355549,42.7822817 78.4157447,42.8222171 78.4952549,42.8623769 C78.5935667,42.9124084 78.6905193,42.963786 78.7867924,43.0169584 C78.8649435,43.0598105 78.9426415,43.104233 79.0194334,43.149553 C79.1143474,43.2054177 79.2079021,43.263526 79.3005508,43.3225317 C79.3757571,43.3703196 79.4505103,43.4183319 79.5241309,43.468139 C79.6158734,43.5302857 79.7060303,43.5946759 79.7955077,43.6599636 C79.8666365,43.7117899 79.9382183,43.7638406 80.007988,43.8176861 C80.0970123,43.8863391 80.1833182,43.9576844 80.2696242,44.0292541 C80.336449,44.0848945 80.4039535,44.1398618 80.4694191,44.1970726 C80.5554986,44.2726807 80.6390863,44.3514298 80.7224474,44.4304032 C80.7840622,44.4885115 80.8468096,44.5457224 80.9068387,44.6056255 C80.9913324,44.6895348 81.0724283,44.7774824 81.1537508,44.864757 C81.2087963,44.9237627 81.2654275,44.9814223 81.3188874,45.0419985 C81.4042873,45.1384717 81.4853832,45.238759 81.5669321,45.3390463 C81.6122371,45.3946867 81.6598073,45.4485322 81.7039797,45.5055187 C81.8031976,45.6336261 81.897885,45.7659964 81.9909867,45.8999371 C82.0136392,45.9322444 82.0381039,45.9627569 82.0603033,45.9955129 C82.0612094,45.9970834 82.062342,45.9984295 82.0634747,46 L90,46 L90,37.6364452 L38.2778029,37.6364452 C37.6949545,37.6364452 37.2221971,37.1684379 37.2221971,36.5909448 C37.2221971,36.013676 37.6949545,35.5456687 38.2778029,35.5456687 L90,35.5456687 L90,18.8183348 L58.3334088,18.8183348 L58.3334088,21.9546117 C58.3334088,22.3564339 58.1007678,22.7228078 57.7349301,22.8966839 C57.5895012,22.96601 57.433199,22.9998878 57.2778029,22.9998878 C57.0424436,22.9998878 56.809123,22.9220362 56.6183891,22.77082 L46.0625566,14.4072652 C45.8122466,14.2087099 45.6663646,13.9082968 45.6663646,13.5908326 C45.6663646,13.2731441 45.8122466,12.972731 46.0625566,12.7744 L56.6183891,4.41084519 C56.9346178,4.15979047 57.3688659,4.11088079 57.7349301,4.28475694 C58.1005413,4.45885744 58.3334088,4.82523131 58.3334088,5.22705347 L58.3334088,8.36333042 L90,8.36333042 L90,0 L33,0 L33,10.9773059 L33,46 L66.2694811,46 C66.2703872,45.9984295 66.2715199,45.9970834 66.2721994,45.9959616 Z M50.9443941,29.2724417 L76.2778029,29.2724417 C76.860878,29.2724417 77.3334088,29.740449 77.3334088,30.3179422 C77.3334088,30.895211 76.860878,31.3632182 76.2778029,31.3632182 L50.9443941,31.3632182 C50.3615456,31.3632182 49.8890147,30.895211 49.8890147,30.3179422 C49.8890147,29.740449 50.3615456,29.2724417 50.9443941,29.2724417 Z M36.1668177,3.1360526 L40.3890147,3.1360526 L40.3890147,7.31805434 L36.1668177,7.31805434 L36.1668177,3.1360526 Z M36.1668177,9.40883086 L40.3890147,9.40883086 L40.3890147,13.5908326 L36.1668177,13.5908326 L36.1668177,9.40883086 Z M36.1668177,15.6816091 L40.3890147,15.6816091 L40.3890147,19.8633865 L36.1668177,19.8633865 L36.1668177,15.6816091 Z" id="XMLID_13384_"></path>
                <path d="M11.811168,45.9952854 C11.8332315,45.9622833 11.8577466,45.9313018 11.880033,45.8985242 C11.9711845,45.7651689 12.063896,45.6331606 12.1615105,45.5051933 C12.2056376,45.4472713 12.2531077,45.3924923 12.298572,45.3359173 C12.3779117,45.2366866 12.4570285,45.1370068 12.5401568,45.0413682 C12.5934214,44.9800786 12.6495832,44.9217076 12.7044078,44.861765 C12.7837474,44.774882 12.8628642,44.6879989 12.945324,44.6044835 C13.0052745,44.5438674 13.0672307,44.4866189 13.1285184,44.4275744 C13.2098638,44.3492225 13.2914321,44.2710951 13.3754519,44.1958863 C13.4405283,44.1379643 13.5073875,44.0825118 13.5740239,44.0266103 C13.6582666,43.9552181 13.742955,43.8842748 13.8296492,43.8162501 C13.89896,43.7616957 13.9696079,43.7093862 14.0402559,43.6570768 C14.1278415,43.5919707 14.2158729,43.5279871 14.3054643,43.466024 C14.3783409,43.4157351 14.4523318,43.3674667 14.5267685,43.3191984 C14.6176971,43.2603784 14.7090714,43.2026808 14.8020058,43.1470039 C14.8782253,43.1014296 14.9548906,43.0569778 15.0322245,43.013424 C15.1264961,42.9606656 15.2216591,42.9092542 15.3177136,42.8591898 C15.3963846,42.8185546 15.4752786,42.7788174 15.555064,42.7404272 C15.6526785,42.6932814 15.7516302,42.6486051 15.8510277,42.6048268 C15.9317045,42.5693552 16.0123813,42.5343326 16.0941725,42.5008815 C16.1955757,42.4593483 16.2978704,42.4214071 16.4008337,42.3836904 C16.4828477,42.3536069 16.5646389,42.3232989 16.6475444,42.2954604 C16.7529591,42.2604378 16.8592654,42.2285582 16.9660173,42.1971277 C17.0484771,42.1726567 17.130714,42.1470633 17.2142881,42.1252864 C17.3241601,42.0961009 17.4351465,42.0714055 17.5463558,42.0460365 C17.6281469,42.0274027 17.7094924,42.0074218 17.792175,41.991033 C17.9091787,41.9679091 18.0277425,41.9497243 18.1458605,41.9310905 C18.223863,41.9187428 18.300974,41.9043745 18.3794222,41.8940473 C18.5113578,41.876536 18.6444078,41.8653108 18.7774577,41.8536366 C18.8434255,41.8477995 18.9087247,41.8392684 18.9749154,41.8347783 C19.1746017,41.8215326 19.3754024,41.8143484 19.5770945,41.8143484 C19.7785638,41.8143484 19.9793644,41.8215326 20.1790508,41.8347783 C20.2454643,41.8392684 20.3107635,41.8477995 20.3767313,41.8536366 C20.5097813,41.8653108 20.6428312,41.876536 20.7747668,41.8940473 C20.853215,41.9043745 20.930326,41.9187428 21.0081057,41.9310905 C21.1264466,41.9497243 21.2450103,41.9679091 21.362014,41.991033 C21.4444738,42.0074218 21.5258192,42.0274027 21.6078333,42.0460365 C21.7188196,42.071181 21.8300289,42.0961009 21.9399009,42.1252864 C22.0232522,42.1472878 22.1057119,42.1726567 22.1883946,42.1971277 C22.2949236,42.2285582 22.4012299,42.2602133 22.5066447,42.2954604 C22.5895501,42.3232989 22.6713413,42.3536069 22.7533553,42.3836904 C22.8560957,42.4214071 22.9586133,42.4595728 23.0600165,42.5008815 C23.1418077,42.5341081 23.2224845,42.5693552 23.3031614,42.6048268 C23.4025588,42.6486051 23.5012877,42.6935059 23.5991251,42.7404272 C23.6789104,42.7788174 23.7578044,42.8187791 23.8364754,42.8591898 C23.9325299,42.9092542 24.0276929,42.9604411 24.1219645,43.013424 C24.1995213,43.0567533 24.2759637,43.1014296 24.3519604,43.1470039 C24.4448948,43.2026808 24.536492,43.2603784 24.6274206,43.3191984 C24.7018572,43.3674667 24.7756253,43.4159596 24.8485019,43.466024 C24.9383161,43.5277626 25.0263475,43.5919707 25.1139331,43.6570768 C25.1845811,43.7093862 25.2554519,43.7616957 25.3245398,43.8162501 C25.411234,43.8842748 25.4959224,43.9549936 25.5801651,44.0266103 C25.6465786,44.0825118 25.7136608,44.1379643 25.7785142,44.1958863 C25.8627569,44.2708706 25.9438795,44.3492225 26.0252249,44.4273499 C26.0867355,44.4863944 26.1491374,44.5440919 26.208865,44.604708 C26.2911019,44.6879989 26.3702187,44.774882 26.4495584,44.8619895 C26.504383,44.9219321 26.5607676,44.9798541 26.6140322,45.0415927 C26.6971605,45.1372313 26.7762773,45.2366866 26.855617,45.3361418 C26.9010813,45.3927168 26.9483285,45.4474958 26.9924556,45.5054178 C27.0900702,45.6333851 27.1827817,45.7653934 27.274156,45.8987487 C27.2964424,45.9315263 27.3207346,45.9622833 27.3427982,45.9955099 C27.3439125,45.9970814 27.3450268,45.9984285 27.3459183,46 L31,46 L31,12 L18.0718696,12 L9.87759802,25.0766813 L24.7687165,25.0766813 L24.7687165,17.7538116 C24.7687165,17.176163 25.2336112,16.7076232 25.8072637,16.7076232 C26.3806934,16.7076232 26.8455881,17.176163 26.8455881,17.7538116 L26.8455881,26.1228697 C26.8455881,26.7005183 26.3806934,27.1690581 25.8072637,27.1690581 L9.19273628,27.1690581 C8.99817582,27.1690581 8.81810153,27.1115851 8.6625423,27.0179669 L4.63471729,33.4457394 L23.7315064,33.4457394 C24.304936,33.4457394 24.7700537,33.9140546 24.7700537,34.4919278 C24.7700537,35.0698009 24.304936,35.5381161 23.7315064,35.5381161 L4,35.5381161 L4,45.999551 L11.8080479,45.999551 C11.8091622,45.9979795 11.8102765,45.9966324 11.811168,45.9952854 Z" id="XMLID_13390_"></path>
                <rect id="XMLID_13391_" x="58" y="10" width="31" height="6"></rect>
                <path d="M93,58.9335162 C93,58.3445352 92.5269045,57.8668037 91.9433596,57.8668037 L77.7829274,57.8668037 C79.9334026,56.5595087 81.374915,54.1802364 81.374915,51.466987 C81.374915,50.1567162 81.0320001,48.8661315 80.3831381,47.7344091 C80.0531506,47.158476 79.6519493,46.6372519 79.1951832,46.1792065 C78.2811972,45.2631157 77.1435908,44.6001974 75.9021121,44.2598109 C75.2815996,44.0895031 74.6347787,44 73.9772985,44 C71.3464704,44 68.8918624,45.4309054 67.5712321,47.7344091 C66.9225969,48.8656737 66.579682,50.1564873 66.579682,51.4667581 C66.579682,54.1800075 68.0209676,56.5592798 70.1716696,57.8665748 L22.8283304,57.8665748 C24.9785788,56.5592798 26.420318,54.1800075 26.420318,51.4667581 C26.420318,50.1564873 26.0774031,48.8659026 25.4285411,47.7344091 C24.1079108,45.4309054 21.6533028,44 19.0227015,44 C16.3918734,44 13.9374922,45.4309054 12.6168619,47.7344091 C11.9679999,48.8656737 11.6248583,50.1564873 11.6248583,51.4667581 C11.6248583,54.1800075 13.0665974,56.5592798 15.2168458,57.8665748 L1.05664035,57.8665748 C0.473095466,57.8665748 0,58.3443063 0,58.9332872 C0,59.5224971 0.473095466,60 1.05664035,60 L91.9431329,60 C92.5269045,60.0002286 93,59.522726 93,58.9335162 Z M19.0227015,55.7336078 C16.6878416,55.7336078 14.7952329,53.8233685 14.7952329,51.466987 C14.7952329,50.6896146 15.0022972,49.9614575 15.3622217,49.333791 C16.0934105,48.0587721 17.458266,47.2003662 19.0227015,47.2003662 C20.587137,47.2003662 21.9519925,48.0587721 22.6831813,49.333791 C23.0431058,49.9614575 23.2499433,50.6896146 23.2499433,51.466987 C23.2499433,53.8233685 21.3573346,55.7336078 19.0227015,55.7336078 Z M73.9772985,55.7336078 C71.6426654,55.7336078 69.7498299,53.8233685 69.7498299,51.466987 C69.7498299,50.6896146 69.9568942,49.9614575 70.3170455,49.333791 C71.0480075,48.0587721 72.412863,47.2003662 73.9772985,47.2003662 C75.541734,47.2003662 76.9065895,48.0587721 77.6375515,49.333791 C77.9977028,49.9614575 78.2045403,50.6896146 78.2045403,51.466987 C78.2043135,53.8233685 76.3119316,55.7336078 73.9772985,55.7336078 Z" id="XMLID_13392_"></path>
                <path d="M97.9347329,63 L51.0652671,63 C50.4770842,63 50,63.6714592 50,64.5 C50,65.3282189 50.4770842,66 51.0652671,66 L97.9347329,66 C98.5231444,66 99,65.3282189 99,64.5 C99,63.6714592 98.5231444,63 97.9347329,63 Z" id="XMLID_13396_"></path>
            </g>
        </g>
    </g>
</svg>